<svg xmlns="http://www.w3.org/2000/svg" xmlns:xlink="http://www.w3.org/1999/xlink" viewBox="0 0 635 112"><defs><style>.cls-1{fill:none;stroke:#000;stroke-miterlimit:10;stroke-width:11px;}</style></defs><title>PestPatroLogo</title><g id="Layer_2" data-name="Layer 2"><g id="Layer_1-2" data-name="Layer 1"><image width="1093" height="915" transform="translate(557) scale(0.07)" xlink:href="transparent-black-splash-2.png"/><path d="M68.72,61.46V77.28a2.4,2.4,0,0,0,.51,1.64,3.45,3.45,0,0,0,1.74.89v1.13H56V79.81a3.56,3.56,0,0,0,1.76-.91,2.36,2.36,0,0,0,.49-1.62V36.64A2.44,2.44,0,0,0,57.75,35,3.64,3.64,0,0,0,56,34.08V33H85.94a39.54,39.54,0,0,1,8.32.7,14.59,14.59,0,0,1,5.43,2.43,12.28,12.28,0,0,1,3.8,4.71,15.4,15.4,0,0,1,1.37,6.4,14.35,14.35,0,0,1-2.6,8.51,12.17,12.17,0,0,1-6,4.44,32.14,32.14,0,0,1-10.36,1.32Zm0-7.91h16q4.79,0,6.72-1a4.81,4.81,0,0,0,2-2.12,6.86,6.86,0,0,0,.76-3.22A6.72,6.72,0,0,0,93.41,44a4.89,4.89,0,0,0-2-2.13q-1.91-1-6.72-1h-16Z" transform="translate(0)"/><path d="M123.81,59.88V73h30.86a2.36,2.36,0,0,0,1.62-.49,3.64,3.64,0,0,0,.92-1.76h1.12V83.19h-1.12a3.64,3.64,0,0,0-.92-1.76,2.36,2.36,0,0,0-1.62-.49H111.08V79.81a3.56,3.56,0,0,0,1.76-.91,2.43,2.43,0,0,0,.49-1.65V36.64a2.44,2.44,0,0,0-.49-1.65,3.64,3.64,0,0,0-1.76-.91V33h42.75a2.4,2.4,0,0,0,1.62-.5,3.65,3.65,0,0,0,.91-1.75h1.13V43.11h-1.13a3.65,3.65,0,0,0-.91-1.75,2.4,2.4,0,0,0-1.62-.5h-30V52.25h19.47a2.36,2.36,0,0,0,1.62-.49,3.51,3.51,0,0,0,.91-1.76h1.13V62.13h-1.13a3.62,3.62,0,0,0-.91-1.74,2.31,2.31,0,0,0-1.62-.51Z" transform="translate(0)"/><path d="M210.43,37,204.7,48.31l-1-.56c0-.23,0-.42,0-.56,0-.8-.68-1.65-2-2.57A25.1,25.1,0,0,0,187,40.26a21.52,21.52,0,0,0-6.58.92,7.88,7.88,0,0,0-3.35,2.1,4.45,4.45,0,0,0-1.29,3.06q0,2.7,3.27,3.69a52.11,52.11,0,0,0,7.24,1l5.52.56a45.1,45.1,0,0,1,8,1.44,18.8,18.8,0,0,1,5.39,2.57A11.91,11.91,0,0,1,209,60.18a13.3,13.3,0,0,1,1.39,6,13.67,13.67,0,0,1-3.27,9q-3,3.58-9.17,5.3a36.65,36.65,0,0,1-9.95,1.3,42.16,42.16,0,0,1-18.81-4.57,9.78,9.78,0,0,0-2.36-.91,3,3,0,0,0-1.44.77l-1-.53,5.21-11.77,1,.49v.46a3.87,3.87,0,0,0,1.52,2.91,19.1,19.1,0,0,0,7.06,3.52,30.92,30.92,0,0,0,9.07,1.48,18.4,18.4,0,0,0,8-1.58,7.67,7.67,0,0,0,2.92-2.34,5,5,0,0,0,1.09-3,3.5,3.5,0,0,0-2.56-3.4,34.16,34.16,0,0,0-7.25-1.3L185,61.42a75.42,75.42,0,0,1-7.7-1.08,19.87,19.87,0,0,1-4.5-1.63,11.75,11.75,0,0,1-5-4.75,12.83,12.83,0,0,1-1.65-6.55,13.29,13.29,0,0,1,4.18-10.06q5.49-5.24,16.46-5.24a37.46,37.46,0,0,1,8.57.93,64.77,64.77,0,0,1,9.92,3.45,10.82,10.82,0,0,0,2.5.81,2.91,2.91,0,0,0,1.72-.81Z" transform="translate(0)"/><path d="M244.18,40.86V77.25a2.48,2.48,0,0,0,.49,1.65,3.56,3.56,0,0,0,1.76.91v1.13h-15V79.81a3.52,3.52,0,0,0,1.75-.91,2.43,2.43,0,0,0,.5-1.65V40.86H218.8a2.45,2.45,0,0,0-1.62.48,3.59,3.59,0,0,0-.91,1.77h-1.13V30.7h1.13a3.94,3.94,0,0,0,.93,1.77,2.35,2.35,0,0,0,1.6.48h40.25a2.51,2.51,0,0,0,1.66-.48,3.59,3.59,0,0,0,.91-1.77h1.12V43.11h-1.12a3.59,3.59,0,0,0-.91-1.77,2.51,2.51,0,0,0-1.66-.48Z" transform="translate(0)"/><path d="M298.25,61.46V77.28a2.4,2.4,0,0,0,.51,1.64,3.45,3.45,0,0,0,1.74.89v1.13h-15V79.81a3.47,3.47,0,0,0,1.75-.91,2.36,2.36,0,0,0,.5-1.62V36.64a2.45,2.45,0,0,0-.5-1.65,3.55,3.55,0,0,0-1.75-.91V33h30a39.5,39.5,0,0,1,8.31.7,14.71,14.71,0,0,1,5.44,2.43A12.26,12.26,0,0,1,333,40.79a15.24,15.24,0,0,1,1.37,6.4,14.28,14.28,0,0,1-2.6,8.51,12.13,12.13,0,0,1-6,4.44,32,32,0,0,1-10.35,1.32Zm0-7.91h16c3.19,0,5.42-.34,6.71-1a4.83,4.83,0,0,0,2-2.12,7,7,0,0,0,.76-3.22A6.84,6.84,0,0,0,323,44a4.91,4.91,0,0,0-2-2.13q-1.89-1-6.71-1h-16Z" transform="translate(0)"/><path d="M370.71,68.71H348.9l-3.23,6.75a5.51,5.51,0,0,0-.67,2.21c0,1,.78,1.75,2.35,2.14v1.13H331.48V79.81a4.18,4.18,0,0,0,2.14-1,9.86,9.86,0,0,0,1.69-2.74L353,39.21a7,7,0,0,0,.84-2.81c0-1.08-.68-1.85-2-2.32V33h17v1.13c-1.39.4-2.08,1.09-2.08,2.07a5.15,5.15,0,0,0,.67,2.32l18.28,37a12.19,12.19,0,0,0,2,3.21,4.38,4.38,0,0,0,2.36,1.14v1.13H372.38V79.81c1.55-.25,2.33-1,2.33-2.18a5.62,5.62,0,0,0-.71-2.17Zm-3-6.58L359.91,45,352,62.13Z" transform="translate(0)"/><path d="M414.13,40.86V77.25a2.43,2.43,0,0,0,.49,1.65,3.51,3.51,0,0,0,1.76.91v1.13h-15V79.81a3.56,3.56,0,0,0,1.76-.91,2.43,2.43,0,0,0,.49-1.65V40.86H388.74a2.4,2.4,0,0,0-1.61.48,3.59,3.59,0,0,0-.92,1.77h-1.12V30.7h1.12a3.85,3.85,0,0,0,.94,1.77,2.32,2.32,0,0,0,1.59.48H429a2.48,2.48,0,0,0,1.65-.48,3.51,3.51,0,0,0,.91-1.77h1.13V43.11h-1.13a3.51,3.51,0,0,0-.91-1.77,2.48,2.48,0,0,0-1.65-.48Z" transform="translate(0)"/><path d="M450.2,61.36V77.28a2.4,2.4,0,0,0,.51,1.64,3.45,3.45,0,0,0,1.74.89v1.13h-15V79.81a3.56,3.56,0,0,0,1.76-.91,2.36,2.36,0,0,0,.49-1.62V36.64a2.44,2.44,0,0,0-.49-1.65,3.64,3.64,0,0,0-1.76-.91V33h30a47.49,47.49,0,0,1,8.71.63,15.47,15.47,0,0,1,5.6,2.22,11.14,11.14,0,0,1,4.15,5,16.11,16.11,0,0,1,1.3,6.46q0,11.74-13,13.75l9.32,13.25a30.19,30.19,0,0,0,3.6,4.49,4.52,4.52,0,0,0,2.79,1.1v1.13H472.59V79.81c1.19-.18,1.79-.6,1.79-1.26a9,9,0,0,0-1.65-3.06L463,61.36Zm0-7.91h16.17a41.28,41.28,0,0,0,5.06-.21,8.07,8.07,0,0,0,2.71-.88q2.67-1.44,2.67-5.21c0-2.5-.89-4.24-2.67-5.2a7.57,7.57,0,0,0-2.69-.9,46.74,46.74,0,0,0-5.08-.19H450.2Z" transform="translate(0)"/><path d="M521.16,32.11q12.55,0,19.91,6.78,7.77,7.11,7.78,18.35a23.91,23.91,0,0,1-3.73,12.87q-7.29,11.67-23.89,11.67-12.45,0-19.8-6.78a23.76,23.76,0,0,1-6-8.69,25,25,0,0,1-1.79-9.38,24.63,24.63,0,0,1,3.69-13.19Q504.42,32.33,521.16,32.11Zm0,8.15a16.55,16.55,0,0,0-11.44,4.08A16,16,0,0,0,504.34,57a16,16,0,0,0,5.42,12.6,18.22,18.22,0,0,0,23,0,15.87,15.87,0,0,0,4.15-5.93,17,17,0,0,0,1.27-6.46q0-8.16-5.42-12.82A17.26,17.26,0,0,0,521.2,40.26Z" transform="translate(0)"/><path d="M569.1,73h29.49a2.41,2.41,0,0,0,1.65-.49,3.64,3.64,0,0,0,.92-1.76h1.12V83.19h-1.12a3.64,3.64,0,0,0-.92-1.76,2.41,2.41,0,0,0-1.65-.49H556.37V79.81a3.56,3.56,0,0,0,1.76-.91,2.43,2.43,0,0,0,.49-1.65V36.64a2.44,2.44,0,0,0-.49-1.65,3.64,3.64,0,0,0-1.76-.91V33h15v1.13a3.36,3.36,0,0,0-1.76.89,2.52,2.52,0,0,0-.49,1.67Z" transform="translate(0)"/><line class="cls-1" x1="56" y1="86" x2="602.5" y2="86"/><image width="200" height="200" transform="translate(0 29) scale(0.41)" xlink:href="17062-200.png"/></g></g></svg>